<svg width="182" height="34" viewBox="0 0 182 34" fill="none" xmlns="http://www.w3.org/2000/svg">
    <path d="M171.626 25.1726L176.264 8.32001H182L174.99 33.8113H169.254L171.202 26.7304H166.599L161.465 8.32001H167.555L171.626 25.1726Z" fill="white"/>
    <path d="M156.339 26.7304H150.674V13.2767H147.133V8.32006H150.674V7.96602C150.674 3.00938 153.27 0.531067 158.463 0.531067H160.764V5.4877H158.463C157.047 5.4877 156.339 6.19579 156.339 7.61197V8.32006H160.764V13.2767H156.339V26.7304Z" fill="white"/>
    <path d="M138.822 3.36343C138.822 2.44291 139.152 1.65221 139.813 0.991327C140.474 0.330442 141.265 0 142.185 0C143.106 0 143.896 0.330442 144.557 0.991327C145.218 1.65221 145.549 2.44291 145.549 3.36343C145.549 4.26034 145.218 5.05105 144.557 5.73553C143.896 6.39642 143.106 6.72686 142.185 6.72686C141.265 6.72686 140.474 6.39642 139.813 5.73553C139.152 5.05105 138.822 4.26034 138.822 3.36343ZM145.018 26.7304H139.353V8.32006H145.018V26.7304Z" fill="white"/>
    <path d="M126.437 13.2767H122.897V8.32006H126.437V3.36343L132.102 1.5932V8.32006H136.527V13.2767H132.102V19.6495C132.102 21.0657 132.81 21.7738 134.226 21.7738H136.527V26.7304H134.226C129.033 26.7304 126.437 24.2521 126.437 19.2955V13.2767Z" fill="white"/>
    <path d="M106.591 24.3584C104.703 22.5173 103.759 20.2396 103.759 17.5253C103.759 14.8109 104.703 12.545 106.591 10.7276C108.503 8.88658 110.863 7.96606 113.672 7.96606C115.631 7.96606 117.401 8.48533 118.983 9.52386C120.564 10.5388 121.744 11.9904 122.523 13.8786L117.354 15.6488C116.622 13.973 115.395 13.1351 113.672 13.1351C112.516 13.1351 111.548 13.56 110.769 14.4097C110.014 15.2358 109.636 16.2743 109.636 17.5253C109.636 18.7762 110.014 19.8266 110.769 20.6763C111.548 21.5024 112.516 21.9154 113.672 21.9154C115.395 21.9154 116.622 21.0775 117.354 19.4017L122.523 21.172C121.744 23.0602 120.564 24.5236 118.983 25.5621C117.401 26.577 115.631 27.0845 113.672 27.0845C110.863 27.0845 108.503 26.1758 106.591 24.3584Z" fill="white"/>
    <path d="M92.9286 7.96606C95.3833 7.96606 97.3542 8.60335 98.8411 9.87791C100.352 11.1289 101.107 12.9817 101.107 15.4364V26.7305H95.4423V22.4111C94.5218 25.5267 92.5155 27.0845 89.4235 27.0845C87.9838 27.0845 86.7328 26.5888 85.6707 25.5975C84.6085 24.6062 84.0775 23.308 84.0775 21.703C84.0775 18.1154 86.5322 16.0855 91.4416 15.6134L93.9553 15.401C94.9466 15.3302 95.4423 14.929 95.4423 14.1973C95.4423 13.7252 95.2063 13.3358 94.7342 13.0289C94.2858 12.7221 93.7075 12.5687 92.9994 12.5687C92.1969 12.5687 91.5596 12.7811 91.0875 13.2059C90.6155 13.6308 90.3323 14.1855 90.2378 14.8699L84.6085 13.6662C84.7973 12.0848 85.6235 10.7394 87.0868 9.63008C88.5738 8.52073 90.5211 7.96606 92.9286 7.96606ZM91.5832 22.6589C92.5745 22.6589 93.4597 22.3049 94.2386 21.5968C95.0411 20.8887 95.4423 20.098 95.4423 19.2247V19.1185C95.2063 19.2365 94.7696 19.3309 94.1323 19.4017L91.4062 19.7204C90.2968 19.862 89.7422 20.3576 89.7422 21.2074C89.7422 21.6558 89.8956 22.0099 90.2024 22.2695C90.5329 22.5291 90.9931 22.6589 91.5832 22.6589Z" fill="white"/>
    <path d="M71.8781 13.2767H68.3376V8.32006H71.8781V3.36343L77.5428 1.5932V8.32006H81.9684V13.2767H77.5428V19.6495C77.5428 21.0657 78.2509 21.7738 79.6671 21.7738H81.9684V26.7304H79.6671C74.4744 26.7304 71.8781 24.2521 71.8781 19.2955V13.2767Z" fill="white"/>
    <path d="M60.7312 7.96606C62.7138 7.96606 64.2952 8.66235 65.4754 10.0549C66.6791 11.4239 67.281 13.2177 67.281 15.4364V26.7305H61.6163V16.4986C61.6163 15.4836 61.2977 14.6693 60.6604 14.0556C60.0231 13.4184 59.2206 13.0997 58.2529 13.0997C57.1435 13.0997 56.2466 13.4184 55.5621 14.0556C54.8776 14.6693 54.5354 15.4836 54.5354 16.4986V26.7305H48.8707V8.32011H54.5354V12.9227C55.0311 11.3885 55.8218 10.1847 56.9075 9.31144C57.9932 8.41452 59.2678 7.96606 60.7312 7.96606Z" fill="white"/>
    <path fill-rule="evenodd" clip-rule="evenodd" d="M26.2076 17.5253C26.2076 20.2396 27.1518 22.5173 29.04 24.3584C29.4624 24.7599 29.9067 25.1171 30.3729 25.43C31.9486 24.2279 33.936 23.5108 36.096 23.5108C38.2621 23.5108 40.2546 24.2319 41.8324 25.4401C42.3 25.1248 42.7447 24.7643 43.1664 24.3584C45.0783 22.5173 46.0342 20.2396 46.0342 17.5253C46.0342 14.8109 45.0783 12.545 43.1664 10.7276C41.2782 8.88658 38.9297 7.96606 36.1209 7.96606C33.3121 7.96606 30.9518 8.88658 29.04 10.7276C27.1518 12.545 26.2076 14.8109 26.2076 17.5253ZM32.0848 17.5253C32.0848 16.2743 32.4624 15.2358 33.2177 14.4097C33.9966 13.56 34.9644 13.1351 36.1209 13.1351C37.2775 13.1351 38.2334 13.56 38.9887 14.4097C39.7676 15.2358 40.157 16.2743 40.157 17.5253C40.157 18.7762 39.7676 19.8266 38.9887 20.6763C38.2334 21.5024 37.2775 21.9154 36.1209 21.9154C34.9644 21.9154 33.9966 21.5024 33.2177 20.6763C32.4624 19.8266 32.0848 18.7762 32.0848 17.5253Z" fill="white"/>
    <path d="M3.75288 23.4024C1.25096 20.9477 0 17.9265 0 14.3388C0 10.7512 1.25096 7.72999 3.75288 5.27527C6.2784 2.82056 9.394 1.5932 13.0997 1.5932C15.8612 1.5932 18.2687 2.28949 20.3222 3.68207C22.3757 5.07465 23.8627 6.77406 24.7832 8.78032L19.1893 10.9046C18.6464 9.79525 17.8321 8.88653 16.7463 8.17844C15.6842 7.47035 14.4686 7.11631 13.0997 7.11631C11.1642 7.11631 9.53562 7.8126 8.21385 9.20517C6.89208 10.5978 6.2312 12.309 6.2312 14.3388C6.2312 16.3687 6.89208 18.0799 8.21385 19.4725C9.53562 20.8651 11.1642 21.5614 13.0997 21.5614C14.4686 21.5614 15.6842 21.2073 16.7463 20.4992C17.8321 19.7911 18.6464 18.8824 19.1893 17.7731L24.7832 19.8973C23.8627 21.9036 22.3757 23.603 20.3222 24.9956C18.2687 26.3882 15.8612 27.0845 13.0997 27.0845C9.394 27.0845 6.2784 25.8571 3.75288 23.4024Z" fill="white"/>
    </svg>
    