<svg width="212" height="197" viewBox="0 0 212 197" fill="none" xmlns="http://www.w3.org/2000/svg">
    <g filter="url(#filter0_d_91_567)">
    <path d="M133.695 137.366L137.366 137.336C137.372 137.336 137.379 137.335 137.385 137.333C137.391 137.33 137.397 137.326 137.402 137.321C137.407 137.317 137.41 137.311 137.413 137.305C137.416 137.299 137.417 137.292 137.417 137.285L137.429 129.686C137.429 129.57 137.487 129.512 137.605 129.512L141.272 129.509C141.327 129.509 141.354 129.481 141.354 129.427V121.778C141.354 121.694 141.396 121.652 141.48 121.652L145.191 121.65C145.256 121.65 145.289 121.617 145.289 121.55L145.292 113.888C145.292 113.836 145.318 113.81 145.371 113.81L149.119 113.802C149.184 113.801 149.216 113.768 149.216 113.705L149.219 106.022C149.219 106 149.228 105.979 149.243 105.963C149.259 105.947 149.28 105.938 149.302 105.937L153.068 105.936C153.115 105.936 153.139 105.912 153.139 105.865L153.141 98.1666C153.141 98.1463 153.15 98.1267 153.164 98.1122C153.179 98.0977 153.198 98.0893 153.219 98.0889L157.004 98.0537C157.016 98.0537 157.028 98.0491 157.036 98.0409C157.045 98.0326 157.049 98.0214 157.049 98.0098L157.074 90.3813C157.074 90.2767 157.126 90.2245 157.23 90.2245L160.953 90.223C160.966 90.223 160.978 90.2181 160.986 90.2093C160.995 90.2005 161 90.1885 161 90.1761V82.4846C161 82.4054 160.96 82.3664 160.881 82.3673L157.158 82.3717C157.095 82.3717 157.064 82.3409 157.064 82.2794L157.067 74.5952C157.067 74.5821 157.065 74.5692 157.059 74.5571C157.054 74.545 157.047 74.534 157.038 74.5247C157.029 74.5155 157.018 74.5081 157.006 74.5031C156.993 74.4981 156.98 74.4955 156.967 74.4955L153.188 74.5029C153.176 74.5029 153.165 74.4979 153.156 74.4891C153.148 74.4803 153.143 74.4684 153.143 74.456L153.14 70.6417C153.14 70.5948 153.117 70.5714 153.07 70.5714L145.371 70.5729C145.349 70.5729 145.329 70.5644 145.314 70.5492C145.299 70.5341 145.29 70.5136 145.29 70.4922L145.287 66.7147C145.287 66.6975 145.28 66.6811 145.268 66.669C145.256 66.6569 145.24 66.6502 145.223 66.6502H141.423C141.377 66.6502 141.354 66.6272 141.354 66.5813L141.356 62.7685C141.356 62.7564 141.351 62.7449 141.343 62.7364C141.335 62.7278 141.323 62.7231 141.312 62.7231L137.503 62.7216C137.482 62.7216 137.462 62.7132 137.447 62.6984C137.433 62.6836 137.424 62.6634 137.424 62.6424L137.426 58.8854C137.426 58.8375 137.402 58.8135 137.355 58.8135L82.4434 58.8004" stroke="url(#paint0_linear_91_567)" stroke-width="2"/>
    <path d="M82.4432 58.8004C82.4461 58.7534 82.4383 58.7324 82.4197 58.7373" stroke="url(#paint1_linear_91_567)" stroke-width="2"/>
    <path d="M82.4197 58.7373L82.4124 54.9304C82.4114 54.8816 82.3865 54.8571 82.3376 54.8571L78.5747 54.8601C78.5541 54.8601 78.5343 54.8519 78.5198 54.8373C78.5052 54.8227 78.497 54.803 78.497 54.7824L78.4955 51.0048C78.4955 50.9955 78.4937 50.9864 78.4902 50.9779C78.4867 50.9693 78.4815 50.9616 78.4749 50.955C78.4684 50.9485 78.4606 50.9433 78.4521 50.9398C78.4436 50.9362 78.4344 50.9344 78.4252 50.9344L74.6491 50.93C74.6296 50.93 74.611 50.9223 74.5972 50.9086C74.5835 50.8948 74.5758 50.8762 74.5758 50.8567L74.5728 47.0762C74.5728 47.056 74.5648 47.0366 74.5505 47.0223C74.5362 47.008 74.5168 47 74.4966 47L55.0048 47.0015C54.951 47.0015 54.9242 47.0279 54.9242 47.0806L54.9168 50.845C54.9159 50.9017 54.8875 50.93 54.8318 50.93L51.085 50.933C51.0629 50.933 51.0416 50.9419 51.0259 50.9579C51.0103 50.9738 51.0015 50.9954 51.0015 51.018L51 137.262C51 137.337 51.0376 137.375 51.1129 137.375H54.7908C54.8953 137.375 54.9476 137.427 54.9476 137.531L54.9256 141.221C54.9254 141.231 54.9273 141.24 54.9312 141.249C54.9351 141.258 54.9409 141.266 54.9483 141.273C54.9557 141.28 54.9644 141.285 54.9742 141.289C54.9839 141.292 54.9943 141.294 55.0048 141.294L133.432 141.293C133.45 141.293 133.466 141.286 133.478 141.274C133.49 141.261 133.497 141.244 133.497 141.227C133.497 139.957 133.498 138.693 133.5 137.435C133.501 137.403 133.516 137.381 133.545 137.367C133.579 137.353 133.628 137.352 133.695 137.366" stroke="url(#paint2_linear_91_567)" stroke-width="2"/>
    <path d="M82.4196 58.7373L78.5731 58.7681C78.5223 58.7681 78.4969 58.7432 78.4969 58.6934L78.491 55.0257C78.491 54.9814 78.4734 54.9389 78.4421 54.9076C78.4107 54.8762 78.3682 54.8586 78.3239 54.8586L74.6812 54.8542C74.604 54.8532 74.5654 54.8142 74.5654 54.737L74.5639 51.0151C74.5639 50.9574 74.5351 50.9286 74.4774 50.9286L55.0384 50.9271C54.9622 50.9271 54.924 50.9652 54.924 51.0415L54.927 101.938C54.927 101.989 54.9524 102.015 55.0032 102.015L58.6987 102.009C58.8062 102.009 58.8599 101.955 58.8599 101.847L58.8541 94.1472" stroke="url(#paint3_linear_91_567)" stroke-width="2"/>
    <path d="M58.854 94.1471C60.1137 94.1471 61.3592 94.1457 62.5905 94.1427C62.6883 94.1418 62.7503 94.1613 62.7767 94.2014" stroke="url(#paint4_linear_91_567)" stroke-width="2"/>
    <path d="M62.7769 94.2014V101.956C62.7769 101.962 62.7758 101.967 62.7737 101.973C62.7716 101.978 62.7684 101.983 62.7645 101.987C62.7605 101.991 62.7559 101.994 62.7507 101.996C62.7455 101.999 62.74 102 62.7344 102H58.9349C58.8792 102 58.8513 102.028 58.8513 102.085L58.8484 109.748C58.8484 109.777 58.8371 109.805 58.817 109.825C58.797 109.846 58.7697 109.857 58.7414 109.857L55.0019 109.856C54.9491 109.856 54.9227 109.882 54.9227 109.935V121.577C54.9227 121.626 54.9472 121.65 54.996 121.651L58.8484 121.688" stroke="url(#paint5_linear_91_567)" stroke-width="2"/>
    <path d="M58.8484 121.688L58.8454 129.428C58.8454 129.477 58.821 129.501 58.7721 129.501L55.0004 129.5C54.9477 129.5 54.9213 129.526 54.9213 129.577L54.9271 137.197C54.9271 137.318 54.9872 137.378 55.1074 137.377L59.0301 137.37" stroke="url(#paint6_linear_91_567)" stroke-width="2"/>
    <path d="M59.0301 137.37C83.7078 137.377 108.385 137.376 133.063 137.369C133.23 137.369 133.376 137.346 133.5 137.301" stroke="url(#paint7_linear_91_567)" stroke-width="2"/>
    <path d="M133.5 137.301L133.695 137.366" stroke="url(#paint8_linear_91_567)" stroke-width="2"/>
    <path d="M133.5 137.301L133.509 129.579C133.509 129.532 133.532 129.509 133.579 129.509L137.277 129.503C137.317 129.503 137.355 129.487 137.383 129.459C137.411 129.431 137.427 129.393 137.427 129.353L137.43 121.728C137.43 121.709 137.437 121.69 137.45 121.677C137.464 121.663 137.482 121.656 137.5 121.656L141.203 121.653C141.242 121.653 141.28 121.638 141.308 121.61C141.336 121.583 141.351 121.545 141.351 121.506V113.85C141.351 113.837 141.356 113.825 141.365 113.816C141.374 113.807 141.387 113.802 141.399 113.802L145.214 113.787C145.258 113.787 145.28 113.765 145.28 113.721L145.299 106.069C145.299 105.984 145.341 105.942 145.426 105.942L149.087 105.937C149.118 105.937 149.149 105.925 149.172 105.902C149.194 105.88 149.207 105.849 149.207 105.817L149.217 98.1329C149.217 98.1224 149.221 98.1123 149.229 98.1049C149.237 98.0975 149.247 98.0933 149.258 98.0933L153.066 98.0845C153.087 98.0845 153.107 98.0762 153.121 98.0613C153.136 98.0465 153.144 98.0264 153.144 98.0054L153.149 90.2142" stroke="url(#paint9_linear_91_567)" stroke-width="2"/>
    <path d="M153.148 90.2142L156.957 90.22C156.987 90.22 157.016 90.2078 157.038 90.1861C157.059 90.1644 157.071 90.1349 157.071 90.1042L157.073 86.3296C157.073 86.3179 157.068 86.3067 157.06 86.2985C157.052 86.2902 157.041 86.2856 157.03 86.2856H78.5687C78.5159 86.2856 78.4896 86.3061 78.4896 86.3472V90.1423C78.4896 90.1893 78.4661 90.2127 78.4192 90.2127L74.7002 90.2156C74.666 90.2156 74.6332 90.2292 74.609 90.2534C74.5848 90.2776 74.5713 90.3104 74.5713 90.3446L74.5654 97.9423C74.5654 98.0303 74.5209 98.0742 74.432 98.0742L70.7292 98.086C70.6784 98.086 70.6529 98.1114 70.6529 98.1622L70.6163 105.947" stroke="url(#paint10_linear_91_567)" stroke-width="2"/>
    <path d="M70.6167 105.948C70.5591 105.96 70.5322 105.957 70.5361 105.939" stroke="url(#paint11_linear_91_567)" stroke-width="2"/>
    <path d="M70.5359 105.939L66.8023 105.95C66.7359 105.95 66.7027 105.984 66.7027 106.05L66.7012 113.727C66.7012 113.769 66.6802 113.79 66.6382 113.79H62.8445C62.8266 113.79 62.8094 113.797 62.7968 113.81C62.7841 113.822 62.777 113.84 62.777 113.857L62.7712 121.587C62.7712 121.638 62.7462 121.663 62.6964 121.663L58.8851 121.64" stroke="url(#paint12_linear_91_567)" stroke-width="2"/>
    <path d="M58.8851 121.64L58.8675 113.844C58.8675 113.834 58.8714 113.824 58.8783 113.817C58.8851 113.81 58.8945 113.806 58.9042 113.806L62.6861 113.784C62.7409 113.784 62.7687 113.756 62.7697 113.701C62.8078 111.247 62.8049 108.716 62.7609 106.107C62.759 105.996 62.8132 105.94 62.9236 105.94H66.6675C66.7017 105.94 66.7188 105.923 66.7188 105.889L66.7203 98.1578C66.7203 98.138 66.7281 98.119 66.7421 98.105C66.7562 98.0909 66.7752 98.0831 66.795 98.0831L70.5433 98.0801C70.5685 98.0801 70.5928 98.0699 70.6106 98.0518C70.6285 98.0337 70.6386 98.009 70.6386 97.9834L70.6444 90.2567C70.6444 90.2458 70.6487 90.2354 70.6564 90.2277C70.6641 90.22 70.6746 90.2157 70.6855 90.2157L74.4777 90.2142C74.4892 90.2142 74.5007 90.2119 74.5114 90.2075C74.522 90.2031 74.5317 90.1966 74.5399 90.1884C74.5481 90.1803 74.5545 90.1706 74.559 90.1599C74.5634 90.1492 74.5657 90.1378 74.5657 90.1263L74.5686 82.4142C74.5686 82.4018 74.5735 82.3899 74.5823 82.3811C74.5911 82.3723 74.603 82.3673 74.6155 82.3673L145.278 82.3644" stroke="url(#paint13_linear_91_567)" stroke-width="2"/>
    <path d="M145.278 82.3644L149.11 82.3629C149.175 82.3629 149.208 82.3307 149.208 82.2662L149.202 78.5223C149.202 78.4963 149.213 78.4713 149.231 78.4529C149.249 78.4345 149.273 78.4241 149.299 78.4241H153.066C153.118 78.4241 153.144 78.3982 153.144 78.3464L153.138 74.6128C153.138 74.5833 153.126 74.5549 153.106 74.534C153.085 74.5131 153.056 74.5014 153.027 74.5014H74.6109C74.5981 74.5014 74.5858 74.5067 74.5767 74.516C74.5677 74.5253 74.5626 74.538 74.5626 74.5512L74.5728 78.3435" stroke="url(#paint14_linear_91_567)" stroke-width="2"/>
    <path d="M74.5731 78.3434C74.5936 78.3962 74.5696 78.4231 74.5012 78.4241C73.2318 78.428 71.9667 78.4334 70.7061 78.4402C70.665 78.4402 70.6445 78.4607 70.6445 78.5018L70.6342 86.1903C70.6342 86.2529 70.603 86.2836 70.5404 86.2827L66.7291 86.2592" stroke="url(#paint15_linear_91_567)" stroke-width="2"/>
    <path d="M59.0302 137.37C59.0126 137.279 58.9764 137.191 58.9217 137.106C58.8953 137.064 58.8816 137.019 58.8807 136.97L58.8425 129.79C58.8416 129.609 58.9315 129.518 59.1123 129.517L62.6846 129.498C62.7091 129.498 62.7326 129.489 62.7499 129.471C62.7672 129.454 62.777 129.431 62.777 129.406L62.7696 122.047C62.7696 121.767 62.9099 121.628 63.1903 121.63L66.5912 121.659C66.6067 121.659 66.6221 121.656 66.6365 121.65C66.6509 121.645 66.664 121.636 66.6751 121.625C66.6861 121.614 66.6949 121.601 66.7009 121.587C66.7068 121.572 66.7099 121.557 66.7099 121.542L66.7011 114.067C66.7011 113.897 66.7862 113.811 66.9562 113.809L70.5154 113.774C70.5497 113.773 70.5825 113.76 70.6067 113.735C70.6308 113.711 70.6444 113.678 70.6444 113.643C70.6531 111.162 70.6488 108.633 70.6312 106.055C70.6312 106.03 70.6229 106.009 70.6062 105.991C70.5896 105.973 70.5662 105.955 70.5359 105.939" stroke="url(#paint16_linear_91_567)" stroke-width="2"/>
    <path d="M137.364 70.5714H70.7263C70.6745 70.5714 70.6486 70.5972 70.6486 70.649L70.6442 78.2907C70.6442 78.3307 70.6283 78.3691 70.6 78.3974C70.5717 78.4258 70.5333 78.4417 70.4932 78.4417L66.7816 78.4461C66.7653 78.4461 66.7496 78.4524 66.7381 78.4637C66.7265 78.4749 66.72 78.4902 66.72 78.5062L66.7288 86.2592" stroke="url(#paint17_linear_91_567)" stroke-width="2"/>
    <path d="M66.7301 86.2597C66.7078 86.2343 66.6956 86.247 66.6936 86.2977" stroke="url(#paint18_linear_91_567)" stroke-width="2"/>
    <path d="M66.6938 86.2959L62.8884 86.2841C62.8151 86.2841 62.7784 86.3208 62.7784 86.3941L62.7799 94.0929C62.7799 94.1232 62.795 94.1393 62.8253 94.1413C62.8478 94.1432 62.8659 94.1418 62.8796 94.1369" stroke="url(#paint19_linear_91_567)" stroke-width="2"/>
    <path d="M62.8792 94.1369L62.7766 94.2014" stroke="url(#paint20_linear_91_567)" stroke-width="2"/>
    <path d="M58.8863 121.64C58.862 121.661 58.8493 121.678 58.8483 121.69" stroke="url(#paint21_linear_91_567)" stroke-width="2"/>
    <path d="M62.8793 94.1369L66.6129 94.1296C66.6618 94.1296 66.6862 94.1047 66.6862 94.0548L66.6936 86.2959" stroke="url(#paint22_linear_91_567)" stroke-width="2"/>
    <path d="M82.4433 58.8004L82.4331 62.6556C82.4331 62.6996 82.4521 62.7216 82.4902 62.7216L137.345 62.7172C137.366 62.7172 137.386 62.7255 137.401 62.7403C137.417 62.7551 137.425 62.7752 137.426 62.7963L137.431 66.5974C137.431 66.6106 137.437 66.6233 137.446 66.6326C137.455 66.642 137.468 66.6472 137.481 66.6472H141.274C141.294 66.6472 141.314 66.6554 141.328 66.67C141.343 66.6845 141.351 66.7043 141.351 66.7249L141.353 70.5303C141.353 70.5577 141.339 70.5714 141.312 70.5714H137.364" stroke="url(#paint23_linear_91_567)" stroke-width="2"/>
    <path d="M137.364 70.5714L137.457 66.8583C137.458 66.8312 137.453 66.8042 137.442 66.779C137.432 66.7538 137.416 66.7308 137.396 66.7114C137.375 66.6921 137.351 66.6767 137.325 66.6661C137.298 66.6556 137.269 66.6502 137.241 66.6501L82.5309 66.6487C82.5029 66.6487 82.4761 66.6377 82.4563 66.6182C82.4365 66.5987 82.4254 66.5722 82.4254 66.5446L82.4385 62.9458C82.4387 62.9133 82.4324 62.881 82.42 62.8508C82.4075 62.8207 82.3892 62.7933 82.366 62.7702C82.3428 62.7472 82.3153 62.729 82.2849 62.7166C82.2546 62.7042 82.2221 62.6979 82.1894 62.6981L78.6404 62.7289C78.6207 62.7291 78.6011 62.7254 78.5828 62.7179C78.5645 62.7105 78.5478 62.6995 78.5338 62.6856C78.5197 62.6717 78.5086 62.6552 78.501 62.6369C78.4934 62.6187 78.4895 62.5991 78.4895 62.5794L78.4968 58.9484C78.4968 58.9246 78.4921 58.901 78.4829 58.879C78.4738 58.8571 78.4604 58.8371 78.4435 58.8204C78.4266 58.8036 78.4065 58.7904 78.3845 58.7814C78.3624 58.7724 78.3388 58.7679 78.315 58.7681L74.6269 58.7901C74.577 58.7901 74.5521 58.7651 74.5521 58.7153L74.577 54.9934C74.5772 54.9756 74.5739 54.9579 74.5672 54.9414C74.5605 54.9248 74.5506 54.9098 74.538 54.8971C74.5255 54.8844 74.5106 54.8744 74.4941 54.8675C74.4777 54.8606 74.46 54.8571 74.4422 54.8571C69.5618 54.8845 64.698 54.8859 59.8508 54.8615C59.5762 54.8596 59.2874 54.8532 58.9844 54.8424C58.9672 54.8417 58.95 54.8444 58.9338 54.8505C58.9177 54.8567 58.9029 54.866 58.8905 54.8781C58.878 54.8902 58.8681 54.9046 58.8613 54.9207C58.8545 54.9367 58.851 54.954 58.851 54.9714L58.854 94.1471" stroke="url(#paint24_linear_91_567)" stroke-width="2"/>
    <path d="M145.278 82.3644L145.282 78.5589C145.282 78.522 145.268 78.4866 145.242 78.4605C145.215 78.4343 145.18 78.4197 145.143 78.4197C141.725 78.4265 138.26 78.4275 134.748 78.4226C127.138 78.4119 120.333 78.4109 114.336 78.4197C113.549 78.4207 112.755 78.4216 111.954 78.4226C99.2214 78.4324 86.8283 78.4319 74.7749 78.4211C74.7045 78.4211 74.6683 78.4207 74.6664 78.4197C74.638 78.4089 74.6068 78.3835 74.5726 78.3434" stroke="url(#paint25_linear_91_567)" stroke-width="2"/>
    <path d="M153.148 90.2142C144.321 90.2152 135.472 90.2162 126.601 90.2171C125.509 90.2186 124.379 90.3241 123.268 90.2743C122.372 90.2352 121.545 90.2157 120.788 90.2157C106.762 90.2176 92.7448 90.2171 78.7358 90.2142C78.5668 90.2142 78.4822 90.2987 78.4822 90.4678L78.5042 97.8793C78.5042 97.9051 78.499 97.9306 78.4889 97.9543C78.4788 97.978 78.464 97.9994 78.4453 98.0173C78.4267 98.0351 78.4046 98.0489 78.3805 98.058C78.3563 98.067 78.3306 98.0711 78.3049 98.0699C77.1839 98.0249 76.0005 98.0596 74.7545 98.1739C74.7171 98.1772 74.6823 98.1941 74.6566 98.2214C74.6309 98.2487 74.6162 98.2845 74.6152 98.322C74.5488 100.795 74.5287 103.295 74.5551 105.821C74.5553 105.836 74.5525 105.851 74.547 105.865C74.5414 105.879 74.5331 105.892 74.5226 105.902C74.5121 105.913 74.4996 105.921 74.4858 105.927C74.472 105.933 74.4572 105.936 74.4423 105.936L70.6163 105.948" stroke="url(#paint26_linear_91_567)" stroke-width="2"/>
    <path d="M82.4242 58.7362L78.5772 58.767C78.5263 58.767 78.5009 58.7421 78.5009 58.6922L78.4951 55.025C78.4951 54.9806 78.4775 54.9381 78.4461 54.9068C78.4148 54.8755 78.3723 54.8579 78.3279 54.8579L74.6847 54.8535C74.6075 54.8525 74.5689 54.8134 74.5689 54.7362L74.5674 51.0147C74.5674 50.957 74.5386 50.9282 74.4809 50.9282L55.0391 50.9267C54.9628 50.9267 54.9247 50.9648 54.9247 51.0411L54.9277 101.933C54.9277 101.984 54.9531 102.009 55.0039 102.009L58.6999 102.004C58.8074 102.004 58.8612 101.95 58.8612 101.842L58.8553 94.1428C60.1152 94.1428 61.3609 94.1413 62.5924 94.1383C62.6901 94.1374 62.7522 94.1569 62.7786 94.197V101.951C62.7786 101.957 62.7775 101.962 62.7753 101.968C62.7732 101.973 62.7701 101.978 62.7661 101.982C62.7622 101.986 62.7575 101.989 62.7523 101.991C62.7472 101.994 62.7416 101.995 62.7361 101.995H58.9359C58.8802 101.995 58.8524 102.023 58.8524 102.08L58.8495 109.743C58.8495 109.771 58.8382 109.799 58.8181 109.819C58.798 109.84 58.7708 109.851 58.7424 109.851L55.0024 109.85C54.9496 109.85 54.9233 109.876 54.9233 109.929V121.57C54.9233 121.619 54.9477 121.644 54.9966 121.645L58.8495 121.681L58.8465 129.42C58.8465 129.469 58.8221 129.494 58.7732 129.494L55.001 129.492C54.9482 129.492 54.9218 129.518 54.9218 129.57L54.9277 137.189C54.9277 137.31 54.9878 137.37 55.108 137.369L59.0312 137.362C83.7124 137.369 108.394 137.368 133.075 137.36C133.242 137.36 133.387 137.338 133.512 137.293L133.707 137.357C133.64 137.344 133.59 137.344 133.557 137.359C133.528 137.372 133.513 137.395 133.512 137.426C133.51 138.685 133.509 139.949 133.509 141.218C133.509 141.236 133.502 141.252 133.49 141.265C133.478 141.277 133.461 141.284 133.444 141.284L55.0054 141.286C54.9948 141.285 54.9844 141.284 54.9747 141.28C54.965 141.276 54.9562 141.271 54.9488 141.264C54.9415 141.257 54.9357 141.249 54.9318 141.24C54.9279 141.231 54.926 141.222 54.9262 141.212L54.9482 137.523C54.9482 137.418 54.8959 137.366 54.7913 137.366H51.1129C51.0376 137.366 51 137.328 51 137.253L51.0015 51.0176C51.0015 50.9951 51.0103 50.9734 51.0259 50.9575C51.0416 50.9416 51.0629 50.9326 51.085 50.9326L54.8324 50.9297C54.8881 50.9297 54.9164 50.9013 54.9174 50.8446L54.9247 47.0806C54.9247 47.0278 54.9516 47.0015 55.0054 47.0015L74.5 47C74.5202 47 74.5396 47.008 74.5539 47.0223C74.5682 47.0366 74.5762 47.056 74.5762 47.0762L74.5791 50.8564C74.5791 50.8758 74.5869 50.8945 74.6006 50.9082C74.6144 50.9219 74.633 50.9297 74.6524 50.9297L78.4291 50.9341C78.4383 50.9341 78.4475 50.9359 78.456 50.9394C78.4646 50.943 78.4723 50.9481 78.4789 50.9547C78.4854 50.9612 78.4906 50.969 78.4941 50.9775C78.4976 50.986 78.4995 50.9952 78.4995 51.0044L78.5009 54.7816C78.5009 54.8022 78.5091 54.822 78.5237 54.8366C78.5383 54.8511 78.558 54.8593 78.5786 54.8593L82.3421 54.8564C82.391 54.8564 82.4159 54.8808 82.4169 54.9297L82.4242 58.7362Z" fill="#050402"/>
    <path d="M81.9353 58.1476C81.954 58.1427 81.9618 58.1638 81.9589 58.2109L81.9486 62.0805C81.9486 62.1247 81.9677 62.1468 82.006 62.1468L137.123 62.1423C137.144 62.1423 137.165 62.1507 137.18 62.1655C137.195 62.1804 137.204 62.2006 137.204 62.2218L137.21 66.037C137.21 66.0503 137.215 66.063 137.225 66.0724C137.234 66.0818 137.247 66.087 137.26 66.087H141.071C141.091 66.087 141.111 66.0953 141.126 66.1099C141.14 66.1245 141.149 66.1443 141.149 66.165L141.15 69.9846C141.15 70.0121 141.136 70.0258 141.109 70.0258H137.142L137.237 66.2989C137.237 66.2717 137.232 66.2447 137.221 66.2194C137.211 66.194 137.195 66.171 137.174 66.1515C137.154 66.1321 137.13 66.1166 137.103 66.106C137.076 66.0955 137.048 66.09 137.019 66.09L82.0473 66.0885C82.0191 66.0885 81.9922 66.0775 81.9723 66.0579C81.9524 66.0383 81.9412 66.0117 81.9412 65.984L81.9545 62.3719C81.9547 62.3392 81.9483 62.3067 81.9358 62.2765C81.9233 62.2462 81.9049 62.2187 81.8816 62.1956C81.8583 62.1725 81.8306 62.1542 81.8001 62.1417C81.7697 62.1293 81.737 62.123 81.7041 62.1232L78.1382 62.1541C78.1183 62.1543 78.0986 62.1506 78.0802 62.1431C78.0618 62.1357 78.0451 62.1246 78.031 62.1107C78.0169 62.0967 78.0057 62.0801 77.9981 62.0618C77.9904 62.0435 77.9865 62.0239 77.9865 62.004L77.9938 58.3595C77.9938 58.3356 77.9891 58.312 77.9799 58.2899C77.9707 58.2678 77.9572 58.2478 77.9403 58.231C77.9233 58.2142 77.9031 58.2009 77.881 58.1919C77.8588 58.1829 77.8351 58.1783 77.8112 58.1785L74.1054 58.2006C74.0553 58.2006 74.0303 58.1756 74.0303 58.1255L74.0553 54.3898C74.0555 54.3719 74.0522 54.3541 74.0454 54.3375C74.0387 54.3209 74.0288 54.3058 74.0162 54.2931C74.0036 54.2804 73.9886 54.2703 73.972 54.2634C73.9555 54.2565 73.9377 54.253 73.9198 54.253C69.0161 54.2804 64.129 54.2819 59.2586 54.2574C58.9827 54.2554 58.6925 54.249 58.3881 54.2382C58.3708 54.2374 58.3535 54.2402 58.3373 54.2464C58.3211 54.2525 58.3062 54.2619 58.2937 54.274C58.2812 54.2861 58.2712 54.3007 58.2644 54.3168C58.2576 54.3329 58.2541 54.3502 58.2541 54.3677L58.257 93.6896L58.2629 101.419C58.2629 101.527 58.2089 101.58 58.1009 101.58L54.3877 101.586C54.3367 101.586 54.3112 101.561 54.3112 101.51L54.3082 50.423C54.3082 50.3465 54.3465 50.3083 54.4231 50.3083L73.9552 50.3097C74.0131 50.3097 74.0421 50.3387 74.0421 50.3965L74.0435 54.1323C74.0435 54.2098 74.0823 54.249 74.1599 54.25L77.82 54.2544C77.8646 54.2544 77.9073 54.2721 77.9388 54.3036C77.9703 54.335 77.988 54.3777 77.988 54.4222L77.9938 58.1035C77.9938 58.1535 78.0194 58.1785 78.0704 58.1785L81.9353 58.1476Z" fill="#44A2F4"/>
    <path d="M137.748 70.8051H71.1405C71.0887 70.8051 71.0628 70.8307 71.0628 70.8818L71.0585 78.4289C71.0585 78.4685 71.0426 78.5064 71.0143 78.5344C70.9859 78.5623 70.9476 78.578 70.9075 78.578L67.1976 78.5824C67.1813 78.5824 67.1656 78.5886 67.1541 78.5998C67.1425 78.6109 67.136 78.626 67.136 78.6417L67.1448 86.2989C67.1233 86.2747 67.1116 86.2868 67.1097 86.3351L65.2078 86.3293L63.3059 86.3235C63.2327 86.3235 63.1961 86.3597 63.1961 86.4321L63.1975 94.0356C63.1975 94.0655 63.2127 94.0815 63.2429 94.0834C63.2654 94.0853 63.2835 94.0839 63.2972 94.0791L63.1946 94.1428C63.1682 94.1032 63.1062 94.0839 63.0085 94.0848C61.7777 94.0877 60.5328 94.0892 59.2737 94.0892L59.2707 55.3982C59.2707 55.381 59.2742 55.3639 59.281 55.3481C59.2877 55.3322 59.2977 55.3179 59.3101 55.306C59.3226 55.2941 59.3373 55.2848 59.3535 55.2788C59.3696 55.2727 59.3868 55.27 59.4041 55.2708C59.7069 55.2814 59.9955 55.2877 60.27 55.2896C65.115 55.3137 69.9766 55.3123 74.8549 55.2853C74.8727 55.2853 74.8903 55.2888 74.9068 55.2955C74.9232 55.3023 74.9382 55.3123 74.9507 55.3248C74.9632 55.3373 74.9731 55.3522 74.9798 55.3685C74.9865 55.3848 74.9898 55.4023 74.9896 55.4199L74.9647 59.0957C74.9647 59.145 74.9896 59.1696 75.0395 59.1696L78.726 59.1479C78.7498 59.1477 78.7734 59.1521 78.7954 59.161C78.8174 59.1699 78.8375 59.1829 78.8544 59.1995C78.8713 59.2161 78.8847 59.2357 78.8938 59.2574C78.903 59.2791 78.9077 59.3024 78.9077 59.3259L78.9003 62.912C78.9003 62.9315 78.9042 62.9508 78.9118 62.9688C78.9195 62.9869 78.9306 63.0032 78.9446 63.0169C78.9587 63.0307 78.9753 63.0415 78.9936 63.0488C79.0119 63.0562 79.0315 63.0599 79.0513 63.0597L82.5986 63.0293C82.6313 63.0291 82.6638 63.0353 82.6941 63.0475C82.7244 63.0597 82.752 63.0777 82.7751 63.1005C82.7983 63.1233 82.8166 63.1503 82.8291 63.1801C82.8415 63.2098 82.8478 63.2417 82.8477 63.2739L82.8345 66.8281C82.8345 66.8554 82.8456 66.8815 82.8654 66.9008C82.8851 66.9201 82.912 66.9309 82.94 66.9309L137.625 66.9324C137.654 66.9324 137.682 66.9378 137.709 66.9482C137.736 66.9586 137.76 66.9738 137.78 66.9929C137.8 67.0121 137.816 67.0348 137.827 67.0597C137.837 67.0846 137.843 67.1112 137.842 67.138L137.748 70.8051Z" fill="#3472A8"/>
    <path d="M133.803 137.977L133.608 137.913L133.617 130.19C133.617 130.143 133.641 130.12 133.687 130.12L137.371 130.114C137.411 130.114 137.449 130.098 137.476 130.07C137.504 130.042 137.52 130.004 137.52 129.964L137.523 122.338C137.523 122.319 137.53 122.301 137.544 122.287C137.557 122.274 137.574 122.266 137.593 122.266L141.281 122.263C141.32 122.263 141.358 122.248 141.386 122.22C141.413 122.193 141.429 122.156 141.429 122.117V114.46C141.429 114.447 141.434 114.435 141.443 114.426C141.452 114.417 141.464 114.411 141.477 114.411L145.276 114.397C145.32 114.397 145.342 114.375 145.342 114.331L145.361 106.678C145.361 106.593 145.403 106.551 145.488 106.551L149.134 106.546C149.165 106.546 149.196 106.534 149.218 106.511C149.241 106.489 149.253 106.458 149.253 106.426L149.264 98.7415C149.264 98.731 149.268 98.7209 149.276 98.7135C149.283 98.7061 149.294 98.7019 149.304 98.7019L153.098 98.6931C153.118 98.6931 153.138 98.6848 153.153 98.6699C153.167 98.6551 153.175 98.6349 153.175 98.6139L153.18 90.8222L156.973 90.8281C157.003 90.8281 157.032 90.8159 157.053 90.7941C157.075 90.7724 157.087 90.743 157.087 90.7122L157.088 86.9373C157.088 86.9257 157.084 86.9145 157.076 86.9062C157.068 86.898 157.057 86.8933 157.046 86.8933H78.8944C78.8418 86.8933 78.8155 86.9139 78.8155 86.9549V90.7504C78.8155 90.7973 78.7922 90.8207 78.7455 90.8207L75.0412 90.8237C75.0071 90.8237 74.9744 90.8373 74.9503 90.8615C74.9262 90.8856 74.9127 90.9185 74.9127 90.9527L74.9069 98.5509C74.9069 98.6389 74.8626 98.6828 74.774 98.6828L71.0858 98.6946C71.0352 98.6946 71.0099 98.72 71.0099 98.7708L70.9734 106.557C70.9159 106.569 70.8892 106.566 70.8931 106.548L67.1742 106.56C67.108 106.56 67.0749 106.593 67.0749 106.659L67.0735 114.337C67.0735 114.379 67.0525 114.4 67.0107 114.4H63.232C63.2141 114.4 63.1971 114.407 63.1845 114.419C63.1719 114.432 63.1648 114.449 63.1648 114.467L63.1589 122.197C63.1589 122.248 63.1341 122.274 63.0845 122.274L59.2882 122.25L59.2707 114.454C59.2707 114.444 59.2746 114.434 59.2814 114.427C59.2883 114.42 59.2975 114.416 59.3072 114.416L63.0743 114.394C63.1288 114.394 63.1565 114.366 63.1575 114.31C63.1955 111.856 63.1925 109.325 63.1487 106.716C63.1468 106.605 63.2008 106.549 63.3108 106.549H67.0399C67.0739 106.549 67.091 106.532 67.091 106.498L67.0924 98.7664C67.0924 98.7466 67.1003 98.7276 67.1143 98.7135C67.1282 98.6995 67.1472 98.6916 67.1669 98.6916L70.9004 98.6887C70.9255 98.6887 70.9497 98.6785 70.9675 98.6604C70.9853 98.6422 70.9953 98.6176 70.9953 98.5919L71.0011 90.8647C71.0011 90.8538 71.0054 90.8434 71.0131 90.8357C71.0208 90.828 71.0312 90.8237 71.042 90.8237L74.8193 90.8222C74.8308 90.8222 74.8422 90.8199 74.8528 90.8155C74.8634 90.8111 74.8731 90.8046 74.8812 90.7964C74.8893 90.7883 74.8958 90.7786 74.9002 90.7679C74.9046 90.7572 74.9069 90.7458 74.9069 90.7342L74.9098 83.0217C74.9098 83.0092 74.9147 82.9973 74.9235 82.9885C74.9322 82.9797 74.9441 82.9747 74.9565 82.9747L145.34 82.9718L149.157 82.9703C149.222 82.9703 149.255 82.9381 149.255 82.8736L149.249 79.1294C149.249 79.1034 149.259 79.0784 149.277 79.06C149.295 79.0416 149.32 79.0312 149.345 79.0312H153.098C153.149 79.0312 153.175 79.0053 153.175 78.9535L153.169 75.2197C153.169 75.1901 153.158 75.1618 153.137 75.1409C153.116 75.12 153.088 75.1082 153.058 75.1082H74.9521C74.9393 75.1082 74.9271 75.1135 74.9181 75.1228C74.909 75.1322 74.9039 75.1449 74.9039 75.1581L74.9142 78.9506C74.9346 79.0034 74.9108 79.0303 74.8426 79.0312C73.5782 79.0351 72.3181 79.0405 71.0624 79.0474C71.0216 79.0474 71.0011 79.0679 71.0011 79.1089L70.9909 86.798C70.9909 86.8606 70.9597 86.8914 70.8974 86.8904L67.1012 86.867L67.0924 79.1133C67.0924 79.0974 67.0989 79.0821 67.1104 79.0708C67.1219 79.0596 67.1375 79.0532 67.1538 79.0532L70.8507 79.0488C70.8906 79.0488 70.9289 79.0329 70.9571 79.0046C70.9853 78.9763 71.0011 78.9379 71.0011 78.8978L71.0055 71.2556C71.0055 71.2038 71.0313 71.1779 71.0829 71.1779H137.457H141.389C141.417 71.1779 141.43 71.1642 141.43 71.1369L141.429 67.3312C141.429 67.3105 141.421 67.2908 141.406 67.2762C141.392 67.2616 141.372 67.2535 141.351 67.2535H137.574C137.561 67.2535 137.548 67.2482 137.539 67.2389C137.53 67.2295 137.524 67.2168 137.524 67.2036L137.519 63.4023C137.518 63.3812 137.51 63.361 137.495 63.3462C137.48 63.3314 137.459 63.3231 137.438 63.3231L82.8001 63.3275C82.7622 63.3275 82.7432 63.3055 82.7432 63.2616L82.7534 59.406L137.449 59.4192C137.495 59.4192 137.519 59.4431 137.519 59.491L137.517 63.2484C137.517 63.2694 137.525 63.2895 137.54 63.3043C137.555 63.3192 137.575 63.3275 137.596 63.3275L141.389 63.329C141.401 63.329 141.412 63.3338 141.42 63.3423C141.428 63.3508 141.433 63.3624 141.433 63.3744L141.432 67.1875C141.432 67.2334 141.455 67.2564 141.5 67.2564H145.285C145.302 67.2564 145.318 67.2632 145.33 67.2753C145.342 67.2874 145.349 67.3038 145.349 67.3209L145.352 71.0988C145.352 71.1201 145.36 71.1406 145.376 71.1558C145.391 71.1709 145.411 71.1794 145.432 71.1794L153.101 71.1779C153.147 71.1779 153.171 71.2014 153.171 71.2483L153.174 75.0628C153.174 75.0752 153.179 75.0872 153.187 75.096C153.195 75.1048 153.207 75.1097 153.219 75.1097L156.983 75.1024C156.996 75.1024 157.009 75.1049 157.021 75.11C157.033 75.115 157.044 75.1223 157.053 75.1316C157.063 75.1408 157.07 75.1518 157.075 75.1639C157.08 75.176 157.082 75.189 157.082 75.2021L157.079 82.8868C157.079 82.9484 157.111 82.9791 157.173 82.9791L160.882 82.9747C160.96 82.9738 161 83.0129 161 83.092V90.7841C161 90.7965 160.995 90.8085 160.986 90.8173C160.977 90.826 160.966 90.831 160.953 90.831L157.244 90.8325C157.141 90.8325 157.09 90.8847 157.09 90.9893L157.065 98.6183C157.065 98.63 157.06 98.6412 157.052 98.6494C157.043 98.6577 157.032 98.6623 157.02 98.6623L153.25 98.6975C153.229 98.6979 153.209 98.7062 153.195 98.7208C153.18 98.7353 153.172 98.7548 153.172 98.7752L153.169 106.475C153.169 106.521 153.146 106.545 153.099 106.545L149.348 106.546C149.326 106.547 149.305 106.556 149.289 106.572C149.274 106.588 149.265 106.609 149.265 106.631L149.262 114.315C149.262 114.378 149.23 114.41 149.166 114.411L145.432 114.42C145.38 114.42 145.353 114.446 145.353 114.498L145.351 122.161C145.351 122.227 145.318 122.26 145.253 122.26L141.557 122.262C141.474 122.262 141.432 122.304 141.432 122.388V130.037C141.432 130.092 141.404 130.12 141.35 130.12L137.697 130.122C137.58 130.122 137.522 130.181 137.522 130.297L137.51 137.897C137.51 137.903 137.509 137.91 137.506 137.916C137.503 137.922 137.5 137.928 137.495 137.933C137.49 137.938 137.484 137.941 137.478 137.944C137.472 137.947 137.465 137.948 137.459 137.948L133.803 137.977Z" fill="#050402"/>
    <path d="M145.691 82.5638L145.695 78.9613C145.695 78.9264 145.681 78.8928 145.655 78.8681C145.629 78.8434 145.593 78.8295 145.556 78.8295C142.138 78.836 138.674 78.8369 135.163 78.8323C127.553 78.8221 120.75 78.8212 114.753 78.8295C113.967 78.8304 113.173 78.8314 112.371 78.8323C99.6405 78.8415 87.2491 78.8411 75.1972 78.8309C75.1268 78.8309 75.0907 78.8304 75.0887 78.8295C75.0604 78.8193 75.0291 78.7953 74.9949 78.7574L74.9847 75.1674C74.9847 75.1549 74.9898 75.1429 74.9988 75.134C75.0079 75.1252 75.0202 75.1202 75.033 75.1202H153.439C153.468 75.1202 153.497 75.1313 153.517 75.1511C153.538 75.1709 153.55 75.1977 153.55 75.2257L153.556 78.7601C153.556 78.8092 153.53 78.8337 153.478 78.8337H149.711C149.686 78.8337 149.661 78.8435 149.643 78.8609C149.625 78.8783 149.615 78.902 149.615 78.9267L149.621 82.4708C149.621 82.5319 149.588 82.5624 149.522 82.5624L145.691 82.5638Z" fill="white"/>
    <path d="M74.0926 78.4285C74.127 78.469 74.1585 78.4947 74.1871 78.5056C74.189 78.5066 74.2254 78.5071 74.2963 78.5071C86.4321 78.5179 98.9098 78.5184 111.729 78.5086C112.536 78.5076 113.336 78.5066 114.128 78.5056C120.166 78.4967 127.017 78.4977 134.68 78.5086C138.215 78.5135 141.703 78.5125 145.145 78.5056C145.182 78.5056 145.218 78.5204 145.244 78.5468C145.271 78.5732 145.285 78.6091 145.285 78.6464L145.281 82.4949L74.1354 82.4978C74.1229 82.4978 74.1109 82.5028 74.102 82.5117C74.0932 82.5206 74.0882 82.5327 74.0882 82.5453L74.0852 90.3444C74.0852 90.3561 74.0829 90.3677 74.0785 90.3784C74.074 90.3892 74.0675 90.399 74.0593 90.4073C74.0511 90.4156 74.0413 90.4221 74.0306 90.4266C74.0198 90.4311 74.0083 90.4334 73.9967 90.4334L70.1785 90.4348C70.1676 90.4348 70.1571 90.4392 70.1493 90.447C70.1416 90.4548 70.1372 90.4653 70.1372 90.4763L70.1313 98.2903C70.1313 98.3163 70.1212 98.3412 70.1032 98.3595C70.0852 98.3779 70.0608 98.3882 70.0354 98.3882L66.2615 98.3911C66.2415 98.3911 66.2224 98.3991 66.2083 98.4133C66.1942 98.4275 66.1862 98.4467 66.1862 98.4667L66.1848 106.285C66.1848 106.32 66.1675 106.337 66.1331 106.337H62.3637C62.2525 106.337 62.1979 106.393 62.1998 106.506C62.2441 109.144 62.2471 111.704 62.2087 114.185C62.2077 114.241 62.1797 114.27 62.1246 114.27L58.3167 114.292C58.307 114.292 58.2976 114.296 58.2907 114.303C58.2837 114.31 58.2799 114.32 58.2799 114.33L58.2976 122.214C58.2739 122.235 58.2616 122.251 58.2607 122.263L54.382 122.226C54.3328 122.225 54.3082 122.2 54.3082 122.15V110.377C54.3082 110.323 54.3348 110.297 54.3879 110.297L58.1529 110.298C58.1815 110.298 58.2089 110.287 58.2291 110.266C58.2493 110.245 58.2607 110.218 58.2607 110.188L58.2636 102.438C58.2636 102.381 58.2917 102.352 58.3477 102.352H62.1733C62.1789 102.352 62.1845 102.351 62.1896 102.349C62.1948 102.347 62.1996 102.343 62.2035 102.339C62.2075 102.335 62.2107 102.33 62.2128 102.325C62.215 102.319 62.2161 102.314 62.2161 102.308V94.4656L62.3194 94.4004L66.0785 94.393C66.1277 94.393 66.1523 94.3678 66.1523 94.3174L66.1597 86.4708C66.1616 86.4214 66.1734 86.409 66.1951 86.4337L70.0324 86.4574C70.0954 86.4584 70.1269 86.4273 70.1269 86.364L70.1372 78.5886C70.1372 78.5471 70.1579 78.5263 70.1992 78.5263C71.4685 78.5194 72.7422 78.514 74.0203 78.51C74.0892 78.509 74.1133 78.4819 74.0926 78.4285Z" fill="#CBC6C2"/>
    <path d="M153.712 90.6652C144.761 90.6662 135.788 90.6672 126.793 90.6682C125.685 90.6697 124.539 90.7762 123.413 90.7259C122.504 90.6864 121.666 90.6667 120.898 90.6667C106.675 90.6687 92.4614 90.6682 78.2559 90.6652C78.0845 90.6652 77.9988 90.7506 77.9988 90.9212L78.0211 98.4035C78.0211 98.4295 78.0158 98.4553 78.0056 98.4792C77.9953 98.5032 77.9803 98.5248 77.9614 98.5428C77.9425 98.5608 77.9201 98.5747 77.8956 98.5839C77.8711 98.593 77.845 98.5971 77.8189 98.5959C76.6823 98.5505 75.4822 98.5855 74.2188 98.701C74.1809 98.7042 74.1455 98.7213 74.1195 98.7488C74.0934 98.7764 74.0785 98.8126 74.0775 98.8504C74.0102 101.347 73.9898 103.871 74.0166 106.421C74.0168 106.437 74.014 106.452 74.0083 106.466C74.0026 106.48 73.9943 106.492 73.9836 106.503C73.973 106.514 73.9603 106.522 73.9463 106.528C73.9323 106.534 73.9173 106.537 73.9021 106.537L70.0225 106.549L70.0597 98.6891C70.0597 98.6378 70.0854 98.6122 70.137 98.6122L73.8917 98.6003C73.9819 98.6003 74.027 98.5559 74.027 98.4671L74.0329 90.7969C74.0329 90.7624 74.0467 90.7293 74.0713 90.7049C74.0958 90.6804 74.1291 90.6667 74.1638 90.6667L77.9349 90.6637C77.9824 90.6637 78.0062 90.6401 78.0062 90.5927V86.7613C78.0062 86.7199 78.033 86.6992 78.0865 86.6992H157.648C157.66 86.6992 157.671 86.7038 157.679 86.7122C157.687 86.7205 157.692 86.7318 157.692 86.7436L157.69 90.5542C157.69 90.5852 157.678 90.615 157.656 90.6369C157.634 90.6588 157.605 90.6711 157.574 90.6711L153.712 90.6652Z" fill="#44A2F4"/>
    <path d="M66.7143 86.7103L66.7065 94.06C66.7065 94.1072 66.6807 94.1308 66.6291 94.1308L62.6858 94.1378C62.6713 94.1424 62.6522 94.1438 62.6285 94.142C62.5965 94.1401 62.5805 94.1248 62.5805 94.0961L62.5789 86.8033C62.5789 86.7339 62.6177 86.6992 62.6951 86.6992L66.7143 86.7103Z" fill="#050402"/>
    <path d="M153.556 90.8345L153.552 98.6227C153.552 98.6436 153.544 98.6638 153.529 98.6786C153.515 98.6935 153.495 98.7018 153.474 98.7018L149.667 98.7106C149.656 98.7106 149.645 98.7147 149.638 98.7222C149.63 98.7296 149.626 98.7397 149.626 98.7501L149.615 106.431C149.615 106.463 149.603 106.494 149.58 106.516C149.558 106.539 149.527 106.552 149.495 106.552L145.836 106.556C145.751 106.556 145.708 106.598 145.708 106.683L145.689 114.332C145.689 114.376 145.667 114.398 145.623 114.398L141.81 114.413C141.797 114.413 141.785 114.418 141.776 114.427C141.766 114.436 141.761 114.449 141.761 114.461V122.115C141.761 122.154 141.746 122.191 141.718 122.218C141.69 122.246 141.653 122.261 141.613 122.261L137.911 122.264C137.893 122.264 137.875 122.272 137.862 122.285C137.848 122.299 137.841 122.317 137.841 122.336L137.838 129.959C137.838 129.998 137.822 130.036 137.794 130.064C137.766 130.092 137.728 130.108 137.689 130.108L133.991 130.114C133.944 130.114 133.921 130.137 133.921 130.184L133.912 137.904C133.788 137.948 133.642 137.971 133.475 137.971C108.803 137.979 84.1306 137.979 59.4583 137.972C59.4407 137.882 59.4046 137.794 59.3499 137.709C59.3235 137.667 59.3098 137.621 59.3088 137.572L59.2707 130.395C59.2698 130.215 59.3596 130.124 59.5404 130.123L63.112 130.104C63.1365 130.104 63.1599 130.094 63.1773 130.077C63.1946 130.059 63.2043 130.036 63.2043 130.011L63.197 122.655C63.197 122.375 63.3372 122.236 63.6176 122.238L67.0177 122.267C67.0332 122.267 67.0486 122.264 67.063 122.259C67.0774 122.253 67.0905 122.244 67.1015 122.233C67.1126 122.222 67.1214 122.209 67.1273 122.195C67.1333 122.181 67.1364 122.165 67.1364 122.15L67.1276 114.678C67.1276 114.508 67.2126 114.422 67.3826 114.42L70.941 114.385C70.9753 114.385 71.0081 114.371 71.0323 114.346C71.0564 114.322 71.07 114.289 71.07 114.255C71.0788 111.774 71.0744 109.246 71.0568 106.669C71.0568 106.644 71.0485 106.623 71.0319 106.606C71.0153 106.587 70.9918 106.57 70.9615 106.553C70.9576 106.572 70.9845 106.574 71.0421 106.562L74.8672 106.55C74.8822 106.55 74.897 106.547 74.9108 106.541C74.9246 106.536 74.9371 106.527 74.9476 106.516C74.9581 106.506 74.9663 106.493 74.9719 106.479C74.9775 106.466 74.9803 106.451 74.9801 106.436C74.9537 103.911 74.9737 101.412 75.0402 98.9392C75.0411 98.9017 75.0558 98.8659 75.0815 98.8386C75.1072 98.8113 75.1421 98.7944 75.1794 98.7912C76.4251 98.6769 77.6083 98.6422 78.729 98.6871C78.7548 98.6883 78.7805 98.6843 78.8046 98.6752C78.8288 98.6662 78.8508 98.6524 78.8694 98.6345C78.8881 98.6167 78.9029 98.5953 78.913 98.5716C78.9231 98.5479 78.9283 98.5224 78.9283 98.4966L78.9063 91.088C78.9063 90.919 78.9909 90.8345 79.1599 90.8345C93.1658 90.8374 107.18 90.8379 121.202 90.8359C121.96 90.8359 122.786 90.8555 123.682 90.8946C124.793 90.9444 125.923 90.8389 127.015 90.8374C135.883 90.8364 144.731 90.8354 153.556 90.8345Z" fill="#387CB7"/>
    <path d="M70.7308 106.549C70.7627 106.565 70.7873 106.583 70.8048 106.602C70.8223 106.619 70.831 106.64 70.831 106.665C70.8495 109.242 70.8542 111.77 70.8449 114.251C70.8449 114.285 70.8307 114.318 70.8053 114.343C70.7799 114.367 70.7454 114.381 70.7092 114.381L66.9659 114.417C66.787 114.418 66.6976 114.504 66.6976 114.674L66.7069 122.147C66.7069 122.162 66.7036 122.177 66.6973 122.192C66.691 122.206 66.6818 122.219 66.6702 122.23C66.6586 122.241 66.6448 122.249 66.6297 122.255C66.6145 122.261 66.5983 122.264 66.582 122.264L63.0052 122.234C62.7102 122.232 62.5627 122.372 62.5627 122.652L62.5704 130.008C62.5704 130.033 62.5602 130.056 62.5419 130.074C62.5237 130.091 62.499 130.101 62.4733 130.101L58.716 130.12C58.5259 130.121 58.4313 130.212 58.4324 130.392L58.4725 137.57C58.4735 137.619 58.4879 137.664 58.5156 137.706C58.5732 137.791 58.6112 137.879 58.6297 137.97L54.504 137.977C54.3776 137.978 54.3144 137.918 54.3144 137.797L54.3082 130.18C54.3082 130.128 54.336 130.102 54.3915 130.102L58.3584 130.104C58.4098 130.104 58.4354 130.079 58.4354 130.03L58.4385 122.293C58.4396 122.281 58.4524 122.265 58.4771 122.245L62.4856 122.268C62.538 122.268 62.5642 122.243 62.5642 122.192L62.5704 114.465C62.5704 114.447 62.5779 114.43 62.5912 114.417C62.6045 114.405 62.6225 114.397 62.6413 114.397H66.6313C66.6755 114.397 66.6976 114.376 66.6976 114.334L66.6992 106.66C66.6992 106.594 66.7341 106.56 66.804 106.56L70.7308 106.549Z" fill="#44A2F4"/>
    </g>
    <defs>
    <filter id="filter0_d_91_567" x="0" y="0" width="212" height="196.294" filterUnits="userSpaceOnUse" color-interpolation-filters="sRGB">
    <feFlood flood-opacity="0" result="BackgroundImageFix"/>
    <feColorMatrix in="SourceAlpha" type="matrix" values="0 0 0 0 0 0 0 0 0 0 0 0 0 0 0 0 0 0 127 0" result="hardAlpha"/>
    <feOffset dy="4"/>
    <feGaussianBlur stdDeviation="25"/>
    <feComposite in2="hardAlpha" operator="out"/>
    <feColorMatrix type="matrix" values="0 0 0 0 1 0 0 0 0 1 0 0 0 0 1 0 0 0 0.25 0"/>
    <feBlend mode="normal" in2="BackgroundImageFix" result="effect1_dropShadow_91_567"/>
    <feBlend mode="normal" in="SourceGraphic" in2="effect1_dropShadow_91_567" result="shape"/>
    </filter>
    <linearGradient id="paint0_linear_91_567" x1="75.8217" y1="115.956" x2="173.048" y2="115.956" gradientUnits="userSpaceOnUse">
    <stop stop-color="#B5D358"/>
    <stop offset="0.1874" stop-color="#EAC067"/>
    <stop offset="0.1875" stop-color="#EAC067"/>
    <stop offset="0.390625" stop-color="#B87DC4"/>
    <stop offset="0.614583" stop-color="#3BA4F7"/>
    <stop offset="0.817708" stop-color="#2EC6B4"/>
    <stop offset="1" stop-color="#3CCB8F"/>
    </linearGradient>
    <linearGradient id="paint1_linear_91_567" x1="82.4177" y1="58.783" x2="82.4475" y2="58.783" gradientUnits="userSpaceOnUse">
    <stop stop-color="#B5D358"/>
    <stop offset="0.1874" stop-color="#EAC067"/>
    <stop offset="0.1875" stop-color="#EAC067"/>
    <stop offset="0.390625" stop-color="#B87DC4"/>
    <stop offset="0.614583" stop-color="#3BA4F7"/>
    <stop offset="0.817708" stop-color="#2EC6B4"/>
    <stop offset="1" stop-color="#3CCB8F"/>
    </linearGradient>
    <linearGradient id="paint2_linear_91_567" x1="44.0294" y1="115.598" x2="146.378" y2="115.598" gradientUnits="userSpaceOnUse">
    <stop stop-color="#B5D358"/>
    <stop offset="0.1874" stop-color="#EAC067"/>
    <stop offset="0.1875" stop-color="#EAC067"/>
    <stop offset="0.390625" stop-color="#B87DC4"/>
    <stop offset="0.614583" stop-color="#3BA4F7"/>
    <stop offset="0.817708" stop-color="#2EC6B4"/>
    <stop offset="1" stop-color="#3CCB8F"/>
    </linearGradient>
    <linearGradient id="paint3_linear_91_567" x1="52.6064" y1="88.0926" x2="86.6366" y2="88.0926" gradientUnits="userSpaceOnUse">
    <stop stop-color="#B5D358"/>
    <stop offset="0.1874" stop-color="#EAC067"/>
    <stop offset="0.1875" stop-color="#EAC067"/>
    <stop offset="0.390625" stop-color="#B87DC4"/>
    <stop offset="0.614583" stop-color="#3BA4F7"/>
    <stop offset="0.817708" stop-color="#2EC6B4"/>
    <stop offset="1" stop-color="#3CCB8F"/>
    </linearGradient>
    <linearGradient id="paint4_linear_91_567" x1="58.5233" y1="94.1854" x2="63.3783" y2="94.1854" gradientUnits="userSpaceOnUse">
    <stop stop-color="#B5D358"/>
    <stop offset="0.1874" stop-color="#EAC067"/>
    <stop offset="0.1875" stop-color="#EAC067"/>
    <stop offset="0.390625" stop-color="#B87DC4"/>
    <stop offset="0.614583" stop-color="#3BA4F7"/>
    <stop offset="0.817708" stop-color="#2EC6B4"/>
    <stop offset="1" stop-color="#3CCB8F"/>
    </linearGradient>
    <linearGradient id="paint5_linear_91_567" x1="54.2607" y1="114.198" x2="63.9816" y2="114.198" gradientUnits="userSpaceOnUse">
    <stop stop-color="#B5D358"/>
    <stop offset="0.1874" stop-color="#EAC067"/>
    <stop offset="0.1875" stop-color="#EAC067"/>
    <stop offset="0.390625" stop-color="#B87DC4"/>
    <stop offset="0.614583" stop-color="#3BA4F7"/>
    <stop offset="0.817708" stop-color="#2EC6B4"/>
    <stop offset="1" stop-color="#3CCB8F"/>
    </linearGradient>
    <linearGradient id="paint6_linear_91_567" x1="54.5749" y1="133.102" x2="59.6603" y2="133.102" gradientUnits="userSpaceOnUse">
    <stop stop-color="#B5D358"/>
    <stop offset="0.1874" stop-color="#EAC067"/>
    <stop offset="0.1875" stop-color="#EAC067"/>
    <stop offset="0.390625" stop-color="#B87DC4"/>
    <stop offset="0.614583" stop-color="#3BA4F7"/>
    <stop offset="0.817708" stop-color="#2EC6B4"/>
    <stop offset="1" stop-color="#3CCB8F"/>
    </linearGradient>
    <linearGradient id="paint7_linear_91_567" x1="52.7529" y1="137.355" x2="144.921" y2="137.354" gradientUnits="userSpaceOnUse">
    <stop stop-color="#B5D358"/>
    <stop offset="0.1874" stop-color="#EAC067"/>
    <stop offset="0.1875" stop-color="#EAC067"/>
    <stop offset="0.390625" stop-color="#B87DC4"/>
    <stop offset="0.614583" stop-color="#3BA4F7"/>
    <stop offset="0.817708" stop-color="#2EC6B4"/>
    <stop offset="1" stop-color="#3CCB8F"/>
    </linearGradient>
    <linearGradient id="paint8_linear_91_567" x1="133.483" y1="137.348" x2="133.725" y2="137.348" gradientUnits="userSpaceOnUse">
    <stop stop-color="#B5D358"/>
    <stop offset="0.1874" stop-color="#EAC067"/>
    <stop offset="0.1875" stop-color="#EAC067"/>
    <stop offset="0.390625" stop-color="#B87DC4"/>
    <stop offset="0.614583" stop-color="#3BA4F7"/>
    <stop offset="0.817708" stop-color="#2EC6B4"/>
    <stop offset="1" stop-color="#3CCB8F"/>
    </linearGradient>
    <linearGradient id="paint9_linear_91_567" x1="131.844" y1="124.469" x2="156.162" y2="124.469" gradientUnits="userSpaceOnUse">
    <stop stop-color="#B5D358"/>
    <stop offset="0.1874" stop-color="#EAC067"/>
    <stop offset="0.1875" stop-color="#EAC067"/>
    <stop offset="0.390625" stop-color="#B87DC4"/>
    <stop offset="0.614583" stop-color="#3BA4F7"/>
    <stop offset="0.817708" stop-color="#2EC6B4"/>
    <stop offset="1" stop-color="#3CCB8F"/>
    </linearGradient>
    <linearGradient id="paint10_linear_91_567" x1="63.3287" y1="100.589" x2="170.332" y2="100.589" gradientUnits="userSpaceOnUse">
    <stop stop-color="#B5D358"/>
    <stop offset="0.1874" stop-color="#EAC067"/>
    <stop offset="0.1875" stop-color="#EAC067"/>
    <stop offset="0.390625" stop-color="#B87DC4"/>
    <stop offset="0.614583" stop-color="#3BA4F7"/>
    <stop offset="0.817708" stop-color="#2EC6B4"/>
    <stop offset="1" stop-color="#3CCB8F"/>
    </linearGradient>
    <linearGradient id="paint11_linear_91_567" x1="70.5289" y1="105.951" x2="70.6292" y2="105.951" gradientUnits="userSpaceOnUse">
    <stop stop-color="#B5D358"/>
    <stop offset="0.1874" stop-color="#EAC067"/>
    <stop offset="0.1875" stop-color="#EAC067"/>
    <stop offset="0.390625" stop-color="#B87DC4"/>
    <stop offset="0.614583" stop-color="#3BA4F7"/>
    <stop offset="0.817708" stop-color="#2EC6B4"/>
    <stop offset="1" stop-color="#3CCB8F"/>
    </linearGradient>
    <linearGradient id="paint12_linear_91_567" x1="57.903" y1="117.378" x2="72.3229" y2="117.378" gradientUnits="userSpaceOnUse">
    <stop stop-color="#B5D358"/>
    <stop offset="0.1874" stop-color="#EAC067"/>
    <stop offset="0.1875" stop-color="#EAC067"/>
    <stop offset="0.390625" stop-color="#B87DC4"/>
    <stop offset="0.614583" stop-color="#3BA4F7"/>
    <stop offset="0.817708" stop-color="#2EC6B4"/>
    <stop offset="1" stop-color="#3CCB8F"/>
    </linearGradient>
    <linearGradient id="paint13_linear_91_567" x1="51.5837" y1="110.937" x2="158.531" y2="110.937" gradientUnits="userSpaceOnUse">
    <stop stop-color="#B5D358"/>
    <stop offset="0.1874" stop-color="#EAC067"/>
    <stop offset="0.1875" stop-color="#EAC067"/>
    <stop offset="0.390625" stop-color="#B87DC4"/>
    <stop offset="0.614583" stop-color="#3BA4F7"/>
    <stop offset="0.817708" stop-color="#2EC6B4"/>
    <stop offset="1" stop-color="#3CCB8F"/>
    </linearGradient>
    <linearGradient id="paint14_linear_91_567" x1="67.9387" y1="80.2216" x2="165.196" y2="80.2216" gradientUnits="userSpaceOnUse">
    <stop stop-color="#B5D358"/>
    <stop offset="0.1874" stop-color="#EAC067"/>
    <stop offset="0.1875" stop-color="#EAC067"/>
    <stop offset="0.390625" stop-color="#B87DC4"/>
    <stop offset="0.614583" stop-color="#3BA4F7"/>
    <stop offset="0.817708" stop-color="#2EC6B4"/>
    <stop offset="1" stop-color="#3CCB8F"/>
    </linearGradient>
    <linearGradient id="paint15_linear_91_567" x1="66.0673" y1="84.1191" x2="75.7843" y2="84.1191" gradientUnits="userSpaceOnUse">
    <stop stop-color="#B5D358"/>
    <stop offset="0.1874" stop-color="#EAC067"/>
    <stop offset="0.1875" stop-color="#EAC067"/>
    <stop offset="0.390625" stop-color="#B87DC4"/>
    <stop offset="0.614583" stop-color="#3BA4F7"/>
    <stop offset="0.817708" stop-color="#2EC6B4"/>
    <stop offset="1" stop-color="#3CCB8F"/>
    </linearGradient>
    <linearGradient id="paint16_linear_91_567" x1="57.8474" y1="128.805" x2="72.4595" y2="128.805" gradientUnits="userSpaceOnUse">
    <stop stop-color="#B5D358"/>
    <stop offset="0.1874" stop-color="#EAC067"/>
    <stop offset="0.1875" stop-color="#EAC067"/>
    <stop offset="0.390625" stop-color="#B87DC4"/>
    <stop offset="0.614583" stop-color="#3BA4F7"/>
    <stop offset="0.817708" stop-color="#2EC6B4"/>
    <stop offset="1" stop-color="#3CCB8F"/>
    </linearGradient>
    <linearGradient id="paint17_linear_91_567" x1="60.7653" y1="81.9841" x2="148.199" y2="81.9841" gradientUnits="userSpaceOnUse">
    <stop stop-color="#B5D358"/>
    <stop offset="0.1874" stop-color="#EAC067"/>
    <stop offset="0.1875" stop-color="#EAC067"/>
    <stop offset="0.390625" stop-color="#B87DC4"/>
    <stop offset="0.614583" stop-color="#3BA4F7"/>
    <stop offset="0.817708" stop-color="#2EC6B4"/>
    <stop offset="1" stop-color="#3CCB8F"/>
    </linearGradient>
    <linearGradient id="paint18_linear_91_567" x1="66.6905" y1="86.2839" x2="66.7357" y2="86.2839" gradientUnits="userSpaceOnUse">
    <stop stop-color="#B5D358"/>
    <stop offset="0.1874" stop-color="#EAC067"/>
    <stop offset="0.1875" stop-color="#EAC067"/>
    <stop offset="0.390625" stop-color="#B87DC4"/>
    <stop offset="0.614583" stop-color="#3BA4F7"/>
    <stop offset="0.817708" stop-color="#2EC6B4"/>
    <stop offset="1" stop-color="#3CCB8F"/>
    </linearGradient>
    <linearGradient id="paint19_linear_91_567" x1="62.4484" y1="92.0007" x2="67.2943" y2="92.0007" gradientUnits="userSpaceOnUse">
    <stop stop-color="#B5D358"/>
    <stop offset="0.1874" stop-color="#EAC067"/>
    <stop offset="0.1875" stop-color="#EAC067"/>
    <stop offset="0.390625" stop-color="#B87DC4"/>
    <stop offset="0.614583" stop-color="#3BA4F7"/>
    <stop offset="0.817708" stop-color="#2EC6B4"/>
    <stop offset="1" stop-color="#3CCB8F"/>
    </linearGradient>
    <linearGradient id="paint20_linear_91_567" x1="62.7679" y1="94.1838" x2="62.8949" y2="94.1838" gradientUnits="userSpaceOnUse">
    <stop stop-color="#B5D358"/>
    <stop offset="0.1874" stop-color="#EAC067"/>
    <stop offset="0.1875" stop-color="#EAC067"/>
    <stop offset="0.390625" stop-color="#B87DC4"/>
    <stop offset="0.614583" stop-color="#3BA4F7"/>
    <stop offset="0.817708" stop-color="#2EC6B4"/>
    <stop offset="1" stop-color="#3CCB8F"/>
    </linearGradient>
    <linearGradient id="paint21_linear_91_567" x1="58.8451" y1="121.676" x2="58.8922" y2="121.676" gradientUnits="userSpaceOnUse">
    <stop stop-color="#B5D358"/>
    <stop offset="0.1874" stop-color="#EAC067"/>
    <stop offset="0.1875" stop-color="#EAC067"/>
    <stop offset="0.390625" stop-color="#B87DC4"/>
    <stop offset="0.614583" stop-color="#3BA4F7"/>
    <stop offset="0.817708" stop-color="#2EC6B4"/>
    <stop offset="1" stop-color="#3CCB8F"/>
    </linearGradient>
    <linearGradient id="paint22_linear_91_567" x1="62.5578" y1="92.0001" x2="67.2786" y2="92.0001" gradientUnits="userSpaceOnUse">
    <stop stop-color="#B5D358"/>
    <stop offset="0.1874" stop-color="#EAC067"/>
    <stop offset="0.1875" stop-color="#EAC067"/>
    <stop offset="0.390625" stop-color="#B87DC4"/>
    <stop offset="0.614583" stop-color="#3BA4F7"/>
    <stop offset="0.817708" stop-color="#2EC6B4"/>
    <stop offset="1" stop-color="#3CCB8F"/>
    </linearGradient>
    <linearGradient id="paint23_linear_91_567" x1="77.4666" y1="67.3636" x2="150.389" y2="67.3636" gradientUnits="userSpaceOnUse">
    <stop stop-color="#B5D358"/>
    <stop offset="0.1874" stop-color="#EAC067"/>
    <stop offset="0.1875" stop-color="#EAC067"/>
    <stop offset="0.390625" stop-color="#B87DC4"/>
    <stop offset="0.614583" stop-color="#3BA4F7"/>
    <stop offset="0.817708" stop-color="#2EC6B4"/>
    <stop offset="1" stop-color="#3CCB8F"/>
    </linearGradient>
    <linearGradient id="paint24_linear_91_567" x1="52.2251" y1="83.4361" x2="149.514" y2="83.4361" gradientUnits="userSpaceOnUse">
    <stop stop-color="#B5D358"/>
    <stop offset="0.1874" stop-color="#EAC067"/>
    <stop offset="0.1875" stop-color="#EAC067"/>
    <stop offset="0.390625" stop-color="#B87DC4"/>
    <stop offset="0.614583" stop-color="#3BA4F7"/>
    <stop offset="0.817708" stop-color="#2EC6B4"/>
    <stop offset="1" stop-color="#3CCB8F"/>
    </linearGradient>
    <linearGradient id="paint25_linear_91_567" x1="68.6123" y1="81.2686" x2="156.127" y2="81.2686" gradientUnits="userSpaceOnUse">
    <stop stop-color="#B5D358"/>
    <stop offset="0.1874" stop-color="#EAC067"/>
    <stop offset="0.1875" stop-color="#EAC067"/>
    <stop offset="0.390625" stop-color="#B87DC4"/>
    <stop offset="0.614583" stop-color="#3BA4F7"/>
    <stop offset="0.817708" stop-color="#2EC6B4"/>
    <stop offset="1" stop-color="#3CCB8F"/>
    </linearGradient>
    <linearGradient id="paint26_linear_91_567" x1="63.6594" y1="101.66" x2="165.806" y2="101.66" gradientUnits="userSpaceOnUse">
    <stop stop-color="#B5D358"/>
    <stop offset="0.1874" stop-color="#EAC067"/>
    <stop offset="0.1875" stop-color="#EAC067"/>
    <stop offset="0.390625" stop-color="#B87DC4"/>
    <stop offset="0.614583" stop-color="#3BA4F7"/>
    <stop offset="0.817708" stop-color="#2EC6B4"/>
    <stop offset="1" stop-color="#3CCB8F"/>
    </linearGradient>
    </defs>
    </svg>
    